<?xml version="1.0" encoding="UTF-8"?><svg id="uuid-698c3657-eb3a-48df-800d-ea40702ef267" xmlns="http://www.w3.org/2000/svg" viewBox="0 0 243.97 243.97"><g id="uuid-065dc936-4914-44e3-aca3-2ab4c753d77f"><rect width="243.97" height="243.97" rx="20" ry="20" style="fill:#1a498f;"/><path d="M86.3,65.63c-29.98,0-50.91,23.56-50.91,57.29s20.3,55.43,49.36,55.43c14.16,0,26.94-5.25,35.99-14.77,9.76-10.28,14.92-25.04,14.92-42.68,0-33.06-19.83-55.27-49.36-55.27ZM85.52,162.92c-15.07,0-31.28-12.61-31.28-40.31,0-20.68,9.72-41.56,31.44-41.56,15.07,0,31.28,12.66,31.28,40.47s-15.79,41.4-31.44,41.4Z" style="fill:#fff;"/><path d="M169.65,117.15v15.27h21.33v27.67c-3.47,1.29-9.24,2.05-15.87,2.05-23.62,0-38.29-15.39-38.29-40.15s15.33-40,40-40c11.14,0,17.77,2.31,22.31,4.33l2.28,1.01,4.5-15.22-1.67-.81c-5.05-2.44-14.82-5.04-27.1-5.04-35.13,0-58.84,22.65-59.01,56.36,0,16.44,5.58,31.26,15.31,40.66,10.19,9.73,23.52,14.46,40.74,14.46,13.69,0,25.48-3.2,32.96-5.89l1.45-.52v-54.16h-38.93Z" style="fill:#fff;"/><ellipse cx="84.81" cy="122.95" rx="19.58" ry="27.42" style="fill:#fff;"/></g></svg>