<?xml version="1.0" encoding="UTF-8"?><svg id="uuid-8cdd8cc8-17ab-4c8f-a452-97c9e84279b3" xmlns="http://www.w3.org/2000/svg" viewBox="0 0 358.95 66"><g id="uuid-f3091286-cec1-49ea-b731-2480e6e3ca03"><rect width="66" height="66" rx="20" ry="20" style="fill:#1a498f;"/><path d="M23.34,17.75c-8.11,0-13.77,6.37-13.77,15.5s5.49,14.99,13.35,14.99c3.83,0,7.29-1.42,9.74-4,2.64-2.78,4.04-6.77,4.04-11.55,0-8.94-5.37-14.95-13.35-14.95ZM23.13,44.07c-4.08,0-8.46-3.41-8.46-10.9,0-5.6,2.63-11.24,8.5-11.24,4.08,0,8.46,3.43,8.46,10.95s-4.27,11.2-8.5,11.2Z" style="fill:#fff;"/><path d="M45.9,31.69v4.13h5.77v7.48c-.94.35-2.5.55-4.29.55-6.39,0-10.36-4.16-10.36-10.86s4.15-10.82,10.82-10.82c3.01,0,4.81.63,6.03,1.17l.62.27,1.22-4.12-.45-.22c-1.37-.66-4.01-1.36-7.33-1.36-9.5,0-15.92,6.13-15.96,15.25,0,4.45,1.51,8.46,4.14,11,2.76,2.63,6.36,3.91,11.02,3.91,3.7,0,6.89-.87,8.92-1.59l.39-.14v-14.65h-10.53Z" style="fill:#fff;"/><ellipse cx="22.94" cy="33.26" rx="5.3" ry="7.42" style="fill:#fff;"/><path d="M130.31,34.42c0,18.23-11.06,29.29-27.31,29.29s-26.15-12.46-26.15-28.3c0-16.67,10.64-29.12,27.06-29.12s26.4,12.79,26.4,28.13ZM90.13,35.16c0,10.89,5.12,18.56,13.53,18.56s13.37-8.09,13.37-18.89c0-9.98-4.79-18.56-13.45-18.56s-13.45,8.08-13.45,18.89Z" style="fill:#1a498f;"/><path d="M123.61,62.8V7.19h14.69l11.55,20.38c3.3,5.86,6.6,12.79,9.08,19.06h.25c-.82-7.34-1.07-14.85-1.07-23.18V7.19h11.55v55.61h-13.2l-11.88-21.45c-3.3-5.94-6.93-13.12-9.65-19.64l-.25.08c.33,7.34.5,15.18.5,24.26v16.75h-11.55Z" style="fill:#1a498f;"/><path d="M193.42,39.28h-20.46v13.2h22.85v10.31h-35.48V7.19h34.32v10.31h-21.7v11.55h20.46v10.23Z" style="fill:#1a498f;"/><path d="M256.92,60.24c-3.88,1.32-11.22,3.13-18.56,3.13-10.15,0-17.49-2.56-22.61-7.51-5.12-4.79-7.92-12.04-7.84-20.21.08-18.48,13.53-29.04,31.76-29.04,7.18,0,12.71,1.4,15.43,2.72l-2.64,10.07c-3.05-1.32-6.85-2.39-12.95-2.39-10.48,0-18.4,5.94-18.4,17.99s7.18,18.23,17.49,18.23c2.89,0,5.2-.33,6.19-.83v-11.63h-8.58v-9.82h20.71v29.29Z" style="fill:#1a498f;"/><path d="M312.55,34.42c0,18.23-11.06,29.29-27.31,29.29s-26.15-12.46-26.15-28.3c0-16.67,10.64-29.12,27.06-29.12s26.4,12.79,26.4,28.13ZM272.37,35.16c0,10.89,5.12,18.56,13.53,18.56s13.37-8.09,13.37-18.89c0-9.98-4.79-18.56-13.45-18.56s-13.45,8.08-13.45,18.89Z" style="fill:#1a498f;"/><path d="M325.53,62.8l-17.82-55.61h13.78l6.77,23.51c1.9,6.6,3.63,12.95,4.95,19.88h.25c1.4-6.68,3.14-13.28,5.03-19.64l7.1-23.76h13.37l-18.73,55.61h-14.69Z" style="fill:#1a498f;"/><ellipse cx="103.42" cy="34.86" rx="11.74" ry="16.44" style="fill:#1a498f;"/></g></svg>