<?xml version="1.0" encoding="UTF-8"?><svg id="uuid-9ec35544-5328-4b7a-a408-8bdc4eba06ca" xmlns="http://www.w3.org/2000/svg" xmlns:xlink="http://www.w3.org/1999/xlink" viewBox="0 0 826.26 107.31"><defs><linearGradient id="uuid-923b326d-12e6-4256-99f1-e97bb6d7bc65" x1="68.49" y1="110.95" x2="3.32" y2="-1.92" gradientUnits="userSpaceOnUse"><stop offset="0" stop-color="#0065ff"/><stop offset=".36" stop-color="#2243df"/><stop offset="1" stop-color="#6700a0"/></linearGradient></defs><g id="uuid-c91fea8e-f326-4e4d-87b5-4b0779a21d46"><path d="M83.32,102.38h-30.79c-8.47-20.05-12.43-31.21-24.85-33.75v33.75H0V0h38.41c27.82,0,42.37,9.32,42.37,33.05,0,16.52-7.48,25.98-18.78,30.79,7.77,6.92,13.13,20.19,21.32,38.55ZM10.55,35.86l21.14,20.25,37.21-34.59-19.31-7.96-17.48,25.31-13.67-16.27-7.89,13.26Z" style="fill:url(#uuid-923b326d-12e6-4256-99f1-e97bb6d7bc65);"/><path d="M109.97,22.93l-26.17,79.39h30.53l3.75-16.4h12.86l3.95,16.4h30.56l-27.27-79.39h-28.2ZM125.64,63.73h-2.57l1.24-5.55,1.33,5.55Z" style="fill:#3d00e0;"/><path d="M196.86,22.93h-30.53v79.39h25.84v-22.6c19.3-.38,38.06-4.86,38.06-30.1,0-17.96-10.92-26.69-33.37-26.69ZM195.45,42.9c5.59,0,9.25.52,9.25,7.43s-.62,8.04-12.52,8.13v-15.55h3.28Z" style="fill:#3d00e0;"/><rect x="236.89" y="22.93" width="25.84" height="79.39" style="fill:#3d00e0;"/><path d="M304.37,22.93h-32.46v79.39h32.46c23.18,0,40.66-17.13,40.66-39.85s-17.1-39.54-40.66-39.54ZM304.37,80.63h-6.62v-36.11h6.62c3.1,0,13.2,1.29,13.2,17.95s-10.99,18.16-13.2,18.16Z" style="fill:#3d00e0;"/><path d="M367.15,47.43c5.63,0,6.96,2.19,8.82,5.26l1.72,2.84,20.92-11.94-1.2-2.8c-.53-1.23-2.6-5.57-7.17-9.66-6.06-5.43-14.15-8.29-23.39-8.29-23.09,0-40.5,17.5-40.5,40.7s17.41,40.7,40.5,40.7,30.29-17.38,30.59-18.12l1.11-2.76-20.87-11.91-1.72,2.86c-1.86,3.11-3.21,5.35-8.81,5.35-5.19,0-12.08-1.68-12.08-16.22s6.89-16.02,12.08-16.02Z" style="fill:#07f;"/><polygon points="440.88 50.38 427.88 50.38 427.88 24.43 401.72 24.43 401.72 102.78 427.88 102.78 427.88 72.98 440.88 72.98 440.88 102.78 467.04 102.78 467.04 24.43 440.88 24.43 440.88 50.38" style="fill:#07f;"/><polygon points="475.02 102.78 535.8 102.78 535.8 80.17 501.18 80.17 501.18 74.86 530.48 74.86 530.48 52.25 501.18 52.25 501.18 47.04 535.8 47.04 535.8 24.43 475.02 24.43 475.02 102.78" style="fill:#07f;"/><path d="M579.15,47.43c5.63,0,6.96,2.19,8.82,5.26l1.72,2.84,20.92-11.94-1.2-2.8c-.53-1.23-2.6-5.57-7.17-9.66-6.06-5.43-14.15-8.29-23.39-8.29-23.09,0-40.5,17.5-40.5,40.7s17.41,40.7,40.5,40.7,30.3-17.38,30.59-18.12l1.1-2.76-20.87-11.91-1.72,2.86c-1.86,3.11-3.21,5.35-8.81,5.35-5.19,0-12.08-1.68-12.08-16.22s6.89-16.02,12.08-16.02Z" style="fill:#07f;"/><polygon points="657.23 59.43 682.39 24.43 650.9 24.43 639.88 39.81 639.88 24.43 613.73 24.43 613.73 102.78 639.88 102.78 639.88 83.69 640.6 82.7 655.89 102.78 687.62 102.78 657.23 59.43" style="fill:#07f;"/><path d="M692.61,96.37c0,5.87-5.16,10.93-11.03,10.93s-10.93-5.06-10.93-10.93,5.06-11.03,10.93-11.03,11.03,5.06,11.03,11.03Z"/><path d="M755.92,102.95h-22.07c-6.07-14.37-8.91-22.37-17.82-24.19v24.19h-19.84V29.56h27.53c19.94,0,30.37,6.68,30.37,23.69,0,11.84-5.37,18.63-13.46,22.07,5.57,4.96,9.41,14.48,15.29,27.63ZM722.32,43.53h-6.28v19.54h7.39c5.57,0,11.13-.71,11.13-9.51,0-10.02-7.69-10.02-12.25-10.02Z"/><path d="M750.95,66.2c0-21.16,15.79-38.26,37.66-38.26s37.66,17.11,37.66,38.26-15.79,38.26-37.66,38.26-37.66-17.31-37.66-38.26ZM803.79,66.1c0-15.89-7.9-19.94-15.18-19.94s-15.18,4.05-15.18,19.94,7.69,20.14,15.18,20.14,15.18-4.35,15.18-20.14Z"/></g></svg>